<svg width="64" height="50" viewBox="0 0 64 50" fill="none" xmlns="http://www.w3.org/2000/svg">
<path d="M49.2108 0.500934C45.3323 0.466432 41.7644 1.38932 38.7106 3.05408C32.2013 6.60771 28.0698 13.4733 28.0698 21.1354C28.0698 21.5092 28.2193 21.8714 28.4867 22.136C28.7512 22.4034 29.1135 22.5529 29.4873 22.5529C29.8639 22.5529 30.2262 22.4034 30.4907 22.136C30.7552 21.8715 30.9047 21.5092 30.9047 21.1354C30.9047 14.491 34.4612 8.60596 40.0676 5.54333C44.9869 2.858 51.5048 2.29442 58.7789 5.51746C57.4161 6.35123 56.3265 7.59329 55.4668 8.95899C53.92 11.4114 52.8131 14.3643 51.3669 16.9832C49.9207 19.6024 48.2071 21.8278 45.585 23.0612C42.9629 24.2975 39.2684 24.6367 33.5811 22.9922H33.584C32.8336 22.7766 32.0458 23.2078 31.8301 23.9611C31.6116 24.7115 32.0458 25.4993 32.7962 25.7149C38.9058 27.4831 43.4112 27.2186 46.7925 25.6258C50.1737 24.0329 52.2725 21.2096 53.8509 18.3546C55.4294 15.4996 56.5564 12.5498 57.8675 10.471C59.1785 8.39222 60.3775 7.28537 62.5826 7.28537V7.2825C63.2238 7.2825 63.7873 6.85123 63.9512 6.2302C64.1179 5.61205 63.8477 4.95937 63.2928 4.63735C58.4022 1.81401 53.6066 0.54031 49.2103 0.500049L49.2108 0.500934Z" fill="black"/>
<path d="M45.1084 9.56579C44.9215 9.55142 44.7375 9.57442 44.5592 9.6348C44.5592 9.6348 40.261 11.104 36.1722 15.9974C32.0837 20.8937 28.0957 29.2577 28.0957 42.9288H28.0986C28.0986 43.3054 28.2481 43.6648 28.5126 43.9293C28.78 44.1967 29.1394 44.3462 29.516 44.3462C29.8898 44.3462 30.2521 44.1967 30.5166 43.9293C30.784 43.6648 30.9335 43.3054 30.9335 42.9288C30.9335 29.8068 34.6913 22.1963 38.3512 17.8147C42.0084 13.433 45.4556 12.3232 45.4556 12.3232C45.8121 12.2053 46.1054 11.9495 46.275 11.6131C46.4418 11.2767 46.4705 10.8885 46.3526 10.532C46.1715 9.98859 45.6805 9.60605 45.1084 9.56579Z" fill="black"/>
<path d="M11.164 12.4702C7.87773 12.5651 4.31829 13.5513 0.710117 15.6357H0.707242C0.152341 15.9578 -0.117922 16.6104 0.0488405 17.2315C0.212725 17.8496 0.776245 18.2809 1.41742 18.2809C2.94983 18.2809 3.72612 18.9997 4.68642 20.5264C5.64672 22.0502 6.50354 24.2784 7.71107 26.4635C8.9186 28.6485 10.5488 30.8567 13.1968 32.1016C15.8419 33.3466 19.3438 33.5392 24.0098 32.1879H24.0069C24.7573 31.9694 25.1915 31.1845 24.973 30.4341C24.7573 29.6808 23.9695 29.2466 23.2192 29.4652C18.9755 30.6929 16.2872 30.4255 14.4015 29.537C12.5126 28.6487 11.2676 27.0415 10.1894 25.0921C9.11416 23.1428 8.28031 20.9145 7.08426 19.0141C6.53224 18.14 5.84221 17.3149 5.00269 16.6795C9.6374 14.7819 13.8064 14.9573 17.1303 16.3805C21.1296 18.0911 23.9443 21.639 24.7548 25.8738H24.7519C24.8986 26.6415 25.6432 27.1446 26.4109 26.9979C27.1786 26.8512 27.6846 26.1095 27.535 25.3418C26.5518 20.1982 23.1045 15.8537 18.2397 13.7751C16.1121 12.8666 13.7171 12.3979 11.1611 12.4727L11.164 12.4702Z" fill="black"/>
<path d="M13.8751 20.1581C13.303 20.1265 12.7682 20.4456 12.521 20.9602C12.3571 21.2995 12.337 21.6905 12.4606 22.0442C12.5871 22.3978 12.8459 22.6882 13.1851 22.8521C13.1851 22.8521 26.5978 29.3384 28.0669 43.0414C28.1503 43.8206 28.849 44.3841 29.6281 44.3007C30.4044 44.2173 30.9679 43.5187 30.8845 42.7395C29.2342 27.3263 14.41 20.2965 14.41 20.2965C14.2432 20.216 14.0591 20.1696 13.8751 20.1581Z" fill="black"/>
<path d="M30.7522 42.0985C23.9756 42.0985 17.199 43.8523 11.1296 47.3571L11.1268 47.3542C10.8019 47.544 10.5661 47.8516 10.4684 48.2168C10.3706 48.579 10.4224 48.9672 10.6093 49.292C11.0003 49.9677 11.8685 50.2006 12.5442 49.8096C23.8121 43.3032 37.69 43.3032 48.9579 49.8096H48.9607C49.6364 50.2006 50.5047 49.9677 50.8957 49.292C51.0826 48.9671 51.1343 48.579 51.0366 48.2168C50.9388 47.8516 50.7031 47.544 50.3753 47.3542C44.3059 43.8495 37.5264 42.0956 30.7527 42.0956L30.7522 42.0985Z" fill="black"/>
</svg>
